<?xml version="1.0" encoding="utf-8"?>
<!-- Generator: Adobe Illustrator 23.0.0, SVG Export Plug-In . SVG Version: 6.00 Build 0)  -->
<svg version="1.1" id="Layer_1" xmlns="http://www.w3.org/2000/svg" xmlns:xlink="http://www.w3.org/1999/xlink" x="0px" y="0px"
	 viewBox="0 0 23.35 37.31" style="enable-background:new 0 0 23.35 37.31;" xml:space="preserve">
<style type="text/css">
	.st0{fill:#3D58A6;}
</style>
<path class="st0" d="M14.88,30.3v-4.4c0-0.94-0.21-1.4-0.62-1.4c-0.24,0-0.47,0.15-0.7,0.45v6.28c0.23,0.3,0.46,0.45,0.7,0.45
	C14.67,31.67,14.88,31.21,14.88,30.3L14.88,30.3z M18.78,26.87h1.4v-0.95c0-0.95-0.23-1.43-0.7-1.43c-0.47,0-0.7,0.48-0.7,1.43
	V26.87z M6.66,19.41v1.96h-1.7v11.87H3.4V21.37H1.74v-1.96H6.66L6.66,19.41z M10.93,22.95v10.29H9.51v-1.12
	c-0.55,0.84-1.09,1.26-1.61,1.26c-0.47,0-0.76-0.26-0.89-0.79c-0.08-0.3-0.13-0.8-0.13-1.51v-8.13h1.4v7.57
	c0,0.45,0.01,0.69,0.02,0.73c0.01,0.28,0.12,0.42,0.32,0.42c0.28,0,0.58-0.29,0.89-0.87v-7.85L10.93,22.95L10.93,22.95z
	 M16.28,26.06v4.1c0,0.97-0.05,1.66-0.15,2.05c-0.17,0.79-0.54,1.18-1.12,1.18c-0.5,0-0.98-0.38-1.44-1.15v1.01h-1.42V19.41h1.42
	v4.52c0.45-0.75,0.93-1.12,1.44-1.12c0.58,0,0.96,0.39,1.12,1.18C16.23,24.38,16.28,25.07,16.28,26.06z M21.61,29.68v0.25
	c0,0.54-0.01,0.94-0.04,1.21c-0.04,0.41-0.15,0.79-0.32,1.12c-0.38,0.75-0.95,1.12-1.7,1.12c-0.74,0-1.31-0.36-1.72-1.07
	c-0.3-0.5-0.45-1.31-0.45-2.41v-3.62c0-1.1,0.14-1.91,0.42-2.41c0.41-0.71,0.98-1.07,1.7-1.07c0.72,0,1.27,0.36,1.66,1.07
	c0.3,0.52,0.45,1.33,0.45,2.41v2.13h-2.82v1.82c0,0.95,0.24,1.43,0.72,1.43c0.34,0,0.55-0.24,0.64-0.73c0-0.02,0-0.08,0.01-0.2
	c0.01-0.11,0.01-0.27,0.01-0.46v-0.6L21.61,29.68L21.61,29.68z M12.03,6.56v4.38c0,0.95-0.23,1.43-0.68,1.43s-0.68-0.48-0.68-1.43
	V6.56c0-0.97,0.23-1.46,0.68-1.46S12.03,5.59,12.03,6.56z M23.35,26.56c0-3.31-0.13-5.74-0.4-7.29c-0.14-0.82-0.45-1.51-0.91-2.06
	c-0.47-0.55-1-0.87-1.61-0.97c-1.92-0.28-4.84-0.42-8.74-0.42c-3.89,0-6.8,0.14-8.72,0.42c-0.62,0.09-1.16,0.42-1.62,0.97
	c-0.46,0.55-0.76,1.24-0.9,2.06C0.14,20.9,0,23.33,0,26.56c0,3.29,0.14,5.72,0.42,7.29c0.14,0.8,0.44,1.49,0.9,2.05
	c0.46,0.56,0.99,0.89,1.6,0.98c1.94,0.28,4.85,0.42,8.74,0.42c3.89,0,6.81-0.14,8.74-0.42c0.61-0.09,1.14-0.42,1.6-0.98
	c0.46-0.56,0.76-1.24,0.9-2.05C23.2,32.29,23.35,29.86,23.35,26.56z M7.32,8.3L9.23,0H7.64L6.56,5.47L5.43,0H3.78l0.51,1.94
	c0,0,0.16,0.65,0.49,1.94C5.27,5.8,5.6,7.27,5.75,8.3v5.64h1.57L7.32,8.3L7.32,8.3z M13.46,10.58V6.93c0-1.08-0.15-1.9-0.45-2.44
	c-0.41-0.71-0.96-1.07-1.66-1.07c-0.72,0-1.27,0.36-1.66,1.07C9.4,5.03,9.25,5.84,9.25,6.93v3.65c0,1.08,0.15,1.9,0.45,2.44
	c0.38,0.71,0.93,1.07,1.66,1.07c0.69,0,1.25-0.36,1.66-1.07C13.31,12.51,13.46,11.7,13.46,10.58z M17.3,13.94h1.42V3.56H17.3v7.94
	c-0.31,0.58-0.61,0.87-0.89,0.87c-0.21,0-0.33-0.15-0.34-0.45c-0.01-0.04-0.02-0.28-0.02-0.73V3.56h-1.42v8.22
	c0,0.69,0.04,1.21,0.13,1.54c0.16,0.5,0.46,0.76,0.91,0.76c0.51,0,1.05-0.42,1.63-1.26L17.3,13.94L17.3,13.94z"/>
</svg>
